<svg xmlns="http://www.w3.org/2000/svg" xmlns:xlink="http://www.w3.org/1999/xlink" version="1.1" x="0px" y="0px" viewBox="0 0 65 65" enable-background="new 0 0 65 65" xml:space="preserve"><g><path style="fill:#2789e5;"  d="M29.6,33.1c1-0.8,1.7-2,1.7-3.4c0-2.4-2-4.4-4.4-4.4c-2.4,0-4.4,2-4.4,4.4c0,1.4,0.7,2.6,1.7,3.4L13.4,58.6   c-0.2,0.6,0,1.2,0.6,1.5c0.6,0.2,1.2,0,1.5-0.6l10.3-24.3v21.9c0,0.6,0.5,1.1,1.1,1.1c0.6,0,1.1-0.5,1.1-1.1V35.2l10.3,24.3   c0.2,0.4,0.6,0.7,1,0.7c0.1,0,0.3,0,0.4-0.1c0.6-0.2,0.8-0.9,0.6-1.5L29.6,33.1z"></path><path style="fill:#2789e5;" d="M21.3,26.7c1.1-2,3.2-3.3,5.6-3.3c3.5,0,6.4,2.9,6.4,6.4c0,0.6-0.1,1.1-0.2,1.6c0,0,0.1,0,0.1,0l2.4-0.6L31.3,13l-2.4,0.6   c-0.5,0.1-0.9,0.7-0.7,1.2l0.2,0.7l-9.1,2.3L21.3,26.7z"></path><path style="fill:#2789e5;" d="M64.5,24L59.9,5.6c-0.1-0.5-0.7-0.9-1.2-0.7l-6.3,1.6c-0.5,0.1-0.9,0.7-0.7,1.2L51.7,8l-18.5,4.6l4.4,17.7l18.5-4.6   l0.1,0.3c0.1,0.5,0.5,0.8,1,0.8c0.1,0,0.2,0,0.2,0l6.3-1.6c0.3-0.1,0.5-0.2,0.6-0.4C64.5,24.5,64.5,24.2,64.5,24z"></path><path style="fill:#2789e5;" d="M17.3,32.4c0.1,0.4,0.5,0.8,1,0.8c0.1,0,0.2,0,0.2,0l2.2-0.5l-3.5-14.3L15,18.8c-0.3,0.1-0.5,0.2-0.6,0.5   c-0.1,0.2-0.2,0.5-0.1,0.8l0.4,1.7l-9.2,2.3c-0.2-0.4-0.7-0.6-1.1-0.4l-3.2,0.8c-0.3,0.1-0.5,0.2-0.6,0.5c-0.1,0.2-0.2,0.5-0.1,0.8   l2.1,8.3c0.1,0.4,0.5,0.8,1,0.8c0.1,0,0.2,0,0.2,0l3.2-0.8c0.3-0.1,0.5-0.2,0.6-0.5c0.1-0.1,0.1-0.3,0.1-0.4l9.2-2.3L17.3,32.4z"></path></g></svg>